<?xml version="1.0" encoding="UTF-8"?><svg id="Layer_2" xmlns="http://www.w3.org/2000/svg" viewBox="0 0 117.82 103.79"><defs><style>.cls-1{fill:#fff;}</style></defs><g id="Layer_2-2"><polygon class="cls-1" points="83.74 66.98 92.94 68.66 117.82 40.59 96.72 47.5 84 61.59 70.39 73.08 70.58 69.36 88.39 48.22 102.07 36.69 104.04 17.61 102.31 10.14 84.39 21 77.96 48.34 64.76 68.99 64.72 64.89 62.43 55.42 69.22 42.1 62.19 0 52.21 34.46 48.97 25.55 48.12 41.35 51.48 44.5 56.58 55.94 53.65 64.55 53.63 64.74 41.64 46.85 36.17 25.59 37.12 23.29 32.76 6.72 30.41 17.62 16.61 9.66 15.04 17.16 17.42 36.2 32.88 48.67 49.01 67.02 49.61 75.07 35.39 64.89 21.58 51.87 0 46.66 27.03 72.66 36.07 70.25 49.96 79.84 50.73 90.11 37.18 96.81 49.92 94.78 46.03 102.91 57.84 97.9 68.81 103.79 66.13 96.57 83.05 98.89 69.36 92.48 69.72 85.76 76.63 76.89 69.94 81.51 70.12 78.09 83.74 66.98"/></g></svg>