<?xml version="1.0" encoding="UTF-8"?><svg id="Layer_2" xmlns="http://www.w3.org/2000/svg" viewBox="0 0 104.55 89.08"><defs><style>.cls-1{fill:#fff;}</style></defs><g id="Layer_2-2"><path class="cls-1" d="M81.29,77.3l14.93-3.06,8.33-8.45-1.06-19.45-2.65-6.91-5.85-8.92-10.68-5.89,4.81,8.73,3.8,14.25-3.48,15.05-12.91,10.1,1.63,3.61-9.76-2.71-20.69,7.72-6.66-4.84,1.05-.99,3.5-1.78,4.94,4.83,12.25-5.25,16.76-11.95,5.42-6.31-.69-14.07-6.24-6.2-9.1-7.7,6.2-10.02-7.41-7.24-8.14-2.42-3.25-4.37-3.52,2.53,2.6,4.63,6.63,5.29,.05,10.55-2.88,6.05,4.29,3.2,5.14,4.37,1.23,5.93-4.7,7.16-5.54,2.2-3.6,.75,.45-1.69-3.16-5.26-4.21-3.16-1.4-5.61,5.61-8.07-7.36,1.75-6.66,6.66,1.05,10.52,7.01,7.72-4.21,6.66-12.63-24.2,4.91-11.22,7.36-9.12,10.52-5.96L42.79,0l1.75,10.52-10.52,10.17-8.07,16.83-1.4,19.64,6.66,14.03,2.83,2.24-7.28,1.7-10.63-12-.7-15.43,6.31-13.33,6.31-7.72-11.57,3.86-7.36,7.72-3.86,6.31L.7,63.48l6.66,9.82,14.44,5.84-.41,.48-8.77,6.31-12.63,3.16,20.69-1.4,13.33-1.05,10.52,2.45,12.98-3.16s10.52,1.4,11.92,1.75,14.03,0,14.03,0l19.99,1.05-8.77-4.56-13.4-6.87Z"/></g></svg>