<?xml version="1.0" encoding="UTF-8"?><svg id="Layer_2" xmlns="http://www.w3.org/2000/svg" viewBox="0 0 26 26">
  <defs>
    <style>
      .exotic-svg-1 {
        fill: #e93cac;
      }

      .exotic-svg-2 {
        fill: #fff;
      }
    </style>
  </defs>
  <g id="Layer_2-2">
    <rect class="exotic-svg-1" width="26" height="26" rx="5" ry="5" />
    <g>
      <path class="exotic-svg-2"
        d="M13,21.81c-1.2,0-2.33-.47-3.18-1.32l-4.62-4.62c-1.75-1.75-1.75-4.61,0-6.36l4.62-4.62c.85-.85,1.98-1.32,3.18-1.32s2.33,.47,3.18,1.32l4.62,4.62c.85,.85,1.32,1.98,1.32,3.18s-.47,2.33-1.32,3.18l-4.62,4.62c-.85,.85-1.98,1.32-3.18,1.32Z" />
      <path
        d="M13,4.07c1.07,0,2.07,.42,2.83,1.17l4.62,4.62c1.56,1.56,1.56,4.1,0,5.66l-4.62,4.62c-.76,.76-1.76,1.17-2.83,1.17s-2.07-.42-2.83-1.17l-4.62-4.62c-1.56-1.56-1.56-4.1,0-5.66l4.62-4.62c.76-.76,1.76-1.17,2.83-1.17m0-1c-1.28,0-2.56,.49-3.54,1.46l-4.62,4.62c-1.95,1.95-1.95,5.12,0,7.07l4.62,4.62c.98,.98,2.26,1.46,3.54,1.46s2.56-.49,3.54-1.46l4.62-4.62c1.95-1.95,1.95-5.12,0-7.07l-4.62-4.62c-.98-.98-2.26-1.46-3.54-1.46h0Z" />
    </g>
  </g>
</svg>