<?xml version="1.0" encoding="UTF-8"?><svg id="Layer_2" xmlns="http://www.w3.org/2000/svg" viewBox="0 0 130.54 92.95"><defs><style>.cls-1{fill:#fff;}</style></defs><g id="Layer_2-2"><polygon class="cls-1" points="121.05 72.65 121.76 51.09 105.36 43.16 94.87 37.92 92.55 22.22 86.27 22.41 95.19 8.41 86.63 0 81.96 11.1 71.44 12.34 65.88 7.73 63.41 15.39 56.21 6.09 44.48 5.95 45.75 16.15 30.92 18.4 27.03 32.49 33.59 33.18 32.88 42.09 22.76 48.02 6.94 57.04 9.1 78.49 0 84.56 15.21 80.96 16.52 65.46 35.81 53.78 44.93 47.1 43.86 58.09 49.57 65.88 41.48 71.94 26.25 78.45 48.08 73.15 53.23 66.95 57.2 62.79 51.27 56.64 55.09 50.81 55.73 56.61 64.75 63.09 57.83 92.95 72.86 63.64 71.34 52.45 73.82 37.4 76.85 37.72 74.8 49.66 80.45 59.54 74.16 65.32 77.88 69.71 82.65 76.21 104.12 82.81 89.3 75.39 81.59 68.86 87.76 61.43 87.19 46.28 92.74 49.79 112.76 60.14 115.12 75.52 130.54 78.09 121.05 72.65"/></g></svg>