<?xml version="1.0" encoding="UTF-8"?><svg id="Layer_2" xmlns="http://www.w3.org/2000/svg" viewBox="0 0 131 89.16"><defs><style>.cls-1{fill:#fff;}</style></defs><g id="Layer_2-2"><g><polygon class="cls-1" points="43.1 24.93 34.23 32.96 35.5 43.1 43.95 48.17 51.98 46.91 57.89 40.57 57.28 37.07 61.7 39.72 69.42 38.5 70.15 44.37 78.6 49.44 86.63 48.17 92.55 41.84 91.28 34.65 86.21 30 82.83 34.65 77.75 31.69 80.71 27.89 77.75 26.2 75.03 28.66 74.37 24.93 71.44 22.24 73.11 23.24 81.14 21.97 87.05 15.64 85.78 8.45 80.71 3.8 77.33 8.45 72.26 5.49 75.22 1.69 72.26 0 63.39 8.03 64.65 18.17 68.96 20.75 65.92 24.93 60.85 21.97 63.81 18.17 61.16 16.66 62.12 15.64 60.85 8.45 55.78 3.8 52.4 8.45 47.33 5.49 50.29 1.69 47.33 0 38.45 8.03 39.72 18.17 48.17 23.24 54.48 22.25 51.98 24.51 52.63 29.72 51.55 28.74 48.17 33.38 43.1 30.43 46.06 26.62 43.1 24.93"/><polygon class="cls-1" points="59.52 41.85 50.69 49.93 52.01 60.06 60.49 65.09 68.51 63.78 74.4 57.41 73.09 50.23 67.99 45.61 64.64 50.28 59.55 47.35 62.49 43.53 59.52 41.85"/><polygon class="cls-1" points="125.99 76.7 118.79 70.78 101.58 67.4 89.84 63.84 90.08 63.74 89.8 60.38 90.23 58.53 99.8 56.13 99.8 48.1 110.36 45.99 114.17 35 107.41 26.97 95.15 18.52 94.31 26.97 104.03 35 97.26 42.19 91.77 50.64 82.9 55.29 77.4 56.13 78.25 62.89 70.22 67.12 71.07 70 60.85 74.37 58.43 72.98 59.16 69.3 46.58 62.22 47.33 56.2 41.84 55.36 32.96 50.71 27.47 42.26 20.71 35.07 30.43 27.05 29.58 18.59 17.33 27.05 10.56 35.07 14.37 46.06 24.93 48.17 24.93 56.2 35.07 58.74 34.65 63.81 40.2 66.03 29.42 69.3 12.21 72.68 5.01 78.6 0 79.02 10.64 81.98 23.16 77.75 32.55 81.14 36.62 84.94 46.64 78.18 52.9 84.09 56.97 80.29 57.15 79.41 63.39 89.16 68.88 81.98 73.93 77.88 74.03 78.39 78.1 82.19 84.36 76.28 94.38 83.04 98.45 79.23 107.84 75.85 120.36 80.08 131 77.12 125.99 76.7"/></g></g></svg>