<?xml version="1.0" encoding="UTF-8"?><svg id="Layer_2" xmlns="http://www.w3.org/2000/svg" viewBox="0 0 32.08 32.08">
  <defs>
    <style>
      .fruit-svg--1 {
        stroke: #fff;
        stroke-miterlimit: 10;
      }

      .fruit-svg--2 {
        fill: #fff;
      }

      .fruit-svg--3 {
        fill: #ad96dc;
      }
    </style>
  </defs>
  <g id="Layer_2-2">
    <rect class="fruit-svg--1" x="3.59" y="3.59" width="24.9" height="24.9" rx="5" ry="5"
      transform="translate(16.04 -6.64) rotate(45)" />
    <g>
      <path class="fruit-svg--3"
        d="M15.37,10.22l-6.02,14.46c-.21,.5,.34,.97,.8,.69l6.02-3.61c.17-.1,.27-.28,.27-.48V10.44c0-.61-.84-.78-1.07-.21Z" />
      <path class="fruit-svg--3"
        d="M16.71,10.22l6.02,14.46c.21,.5-.34,.97-.8,.69l-6.02-3.61c-.17-.1-.27-.28-.27-.48V10.44c0-.61,.84-.78,1.07-.21Z" />
    </g>
    <g>
      <path class="fruit-svg--3"
        d="M15.37,2.69l-6.02,14.46c-.21,.5,.34,.97,.8,.69l6.02-3.61c.17-.1,.27-.28,.27-.48V2.9c0-.61-.84-.78-1.07-.21Z" />
      <path class="fruit-svg--3"
        d="M16.71,2.69l6.02,14.46c.21,.5-.34,.97-.8,.69l-6.02-3.61c-.17-.1-.27-.28-.27-.48V2.9c0-.61,.84-.78,1.07-.21Z" />
    </g>
    <g>
      <path class="fruit-svg--2"
        d="M15.37,7.4l-6.02,14.46c-.21,.5,.34,.97,.8,.69l6.02-3.61c.17-.1,.27-.28,.27-.48V7.61c0-.61-.84-.78-1.07-.21Z" />
      <path class="fruit-svg--2"
        d="M16.71,7.4l6.02,14.46c.21,.5-.34,.97-.8,.69l-6.02-3.61c-.17-.1-.27-.28-.27-.48V7.61c0-.61,.84-.78,1.07-.21Z" />
    </g>
  </g>
</svg>