<?xml version="1.0" encoding="UTF-8"?><svg id="Layer_2" xmlns="http://www.w3.org/2000/svg" viewBox="0 0 100 99.56"><defs><style>.cls-1{fill:#fff;}</style></defs><g id="Layer_2-2"><polygon class="cls-1" points="80.52 65.21 77.07 67.19 66.55 62.62 68.12 51.49 62.99 31.19 60.32 47.06 60.05 45.93 59.87 28.5 51.48 0 51.2 37.05 49.6 43.94 46.99 12.98 39.07 38.49 39.38 43.71 33.98 31.31 32.55 52.25 36.18 61.33 33.04 64.04 19.71 70.19 15.97 68.21 10.35 71.7 19.07 72.75 28.32 74.72 38.39 71.64 46.05 86.73 54.48 74.08 60.66 79.81 61.77 69.66 69.12 71.71 77.73 69.6 85.87 68.37 80.52 65.21"/><polygon class="cls-1" points="34.98 76.59 24.03 80.48 18.02 79.42 0 88.26 21.2 84.72 28.27 85.43 34.98 76.59"/><polygon class="cls-1" points="65.02 74.47 75.97 78.36 81.98 77.3 100 86.14 78.8 82.6 71.73 83.31 65.02 74.47"/><polygon class="cls-1" points="53.71 81.19 49.82 89.67 56.54 99.56 58.3 86.49 53.71 81.19"/></g></svg>