<?xml version="1.0" encoding="UTF-8"?><svg xmlns="http://www.w3.org/2000/svg" viewBox="0 0 556.04 72.66"><g fill="#E93CAC"><g><path d="M57.82,7.57L24.52,68.12,0,19.07,11.2,7.87l13.93,27.85L40.57,7.57h17.26Z"/><path d="M80.45,68.12c-4.19,0-8.11-.79-11.77-2.38-3.66-1.59-6.86-3.76-9.61-6.51-2.75-2.75-4.92-5.95-6.51-9.61-1.59-3.66-2.38-7.58-2.38-11.77s.79-8.05,2.38-11.73c1.59-3.68,3.76-6.9,6.51-9.65,2.75-2.75,5.95-4.92,9.61-6.51,3.66-1.59,7.58-2.38,11.77-2.38s8.05,.79,11.73,2.38c3.68,1.59,6.9,3.76,9.65,6.51,2.75,2.75,4.92,5.97,6.51,9.65,1.59,3.68,2.38,7.59,2.38,11.73s-.79,8.11-2.38,11.77c-1.59,3.66-3.76,6.86-6.51,9.61-2.75,2.75-5.97,4.92-9.65,6.51-3.68,1.59-7.59,2.38-11.73,2.38Zm0-45.41c-2.12,0-4.11,.4-5.98,1.21-1.87,.81-3.48,1.89-4.84,3.25s-2.45,2.96-3.25,4.81c-.81,1.84-1.21,3.8-1.21,5.87s.4,4.11,1.21,5.98c.81,1.87,1.89,3.48,3.25,4.84s2.98,2.45,4.84,3.25c1.87,.81,3.86,1.21,5.98,1.21s4.02-.4,5.87-1.21c1.84-.81,3.44-1.89,4.81-3.25s2.45-2.98,3.25-4.84c.81-1.87,1.21-3.86,1.21-5.98s-.4-4.02-1.21-5.87c-.81-1.84-1.89-3.44-3.25-4.81s-2.96-2.45-4.81-3.25c-1.84-.81-3.8-1.21-5.87-1.21Z"/><path d="M128.21,7.57v60.55h-14.99V22.4l14.99-14.83Z"/><path d="M191.25,1.51V37.99c0,4.19-.79,8.11-2.38,11.77-1.59,3.66-3.75,6.85-6.47,9.57s-5.93,4.87-9.61,6.43c-3.68,1.56-7.62,2.35-11.81,2.35s-8.11-.78-11.77-2.35c-3.66-1.56-6.85-3.71-9.57-6.43s-4.87-5.92-6.43-9.57c-1.56-3.66-2.35-7.58-2.35-11.77s.78-8.05,2.35-11.73c1.56-3.68,3.71-6.9,6.43-9.65,2.72-2.75,5.92-4.92,9.57-6.51,3.66-1.59,7.58-2.38,11.77-2.38l15.14,14.99h-15.14c-2.07,0-4.02,.4-5.87,1.21-1.84,.81-3.44,1.89-4.81,3.25s-2.45,2.98-3.25,4.84c-.81,1.87-1.21,3.86-1.21,5.98s.4,4.02,1.21,5.87c.81,1.84,1.89,3.44,3.25,4.81s2.96,2.45,4.81,3.25c1.84,.81,3.8,1.21,5.87,1.21s4.11-.4,5.98-1.21c1.87-.81,3.48-1.89,4.84-3.25s2.45-2.96,3.25-4.81c.81-1.84,1.21-3.8,1.21-5.87V1.51h14.99Z"/><path d="M272.08,30.42v7.42c0,4.19-.79,8.11-2.38,11.77-1.59,3.66-3.76,6.86-6.51,9.61-2.75,2.75-5.97,4.92-9.65,6.51-3.68,1.59-7.59,2.38-11.73,2.38s-8.11-.79-11.77-2.38c-3.66-1.59-6.86-3.76-9.61-6.51-2.75-2.75-4.92-5.95-6.51-9.61-1.59-3.66-2.38-7.58-2.38-11.77s.79-8.05,2.38-11.73c1.59-3.68,3.76-6.9,6.51-9.65,2.75-2.75,5.95-4.92,9.61-6.51,3.66-1.59,7.58-2.38,11.77-2.38h8.33l14.99,14.99h-23.31c-2.12,0-4.11,.4-5.98,1.21-1.87,.81-3.48,1.89-4.84,3.25s-2.45,2.98-3.25,4.84c-.81,1.87-1.21,3.86-1.21,5.98s.4,4.11,1.21,5.98c.81,1.87,1.89,3.48,3.25,4.84s2.98,2.45,4.84,3.25c1.87,.81,3.86,1.21,5.98,1.21,2.88,0,5.49-.72,7.83-2.16s4.17-3.29,5.49-5.56h-24.07l14.99-14.99h26.04Z"/><path d="M303.57,7.57c4.19,0,8.12,.79,11.81,2.38,3.68,1.59,6.89,3.76,9.61,6.51,2.72,2.75,4.88,5.97,6.47,9.65,1.59,3.68,2.38,7.59,2.38,11.73v30.27h-14.99v-30.27c0-2.07-.4-4.02-1.21-5.87-.81-1.84-1.89-3.44-3.25-4.81-1.36-1.36-2.98-2.45-4.84-3.25-1.87-.81-3.86-1.21-5.98-1.21s-4.03,.4-5.87,1.21c-1.84,.81-3.44,1.89-4.81,3.25-1.36,1.36-2.45,2.96-3.25,4.81-.81,1.84-1.21,3.8-1.21,5.87s.4,4.02,1.21,5.87c.81,1.84,1.89,3.44,3.25,4.81,1.36,1.36,2.96,2.45,4.81,3.25,1.84,.81,3.8,1.21,5.87,1.21h15.14l-15.14,15.14c-4.19-.05-8.11-.87-11.77-2.46-3.66-1.59-6.85-3.75-9.57-6.47s-4.87-5.92-6.43-9.57c-1.56-3.66-2.35-7.58-2.35-11.77s.78-8.05,2.35-11.73c1.56-3.68,3.71-6.9,6.43-9.65,2.72-2.75,5.92-4.92,9.57-6.51,3.66-1.59,7.58-2.38,11.77-2.38Z"/><path d="M368.2,22.59c-.5-.02-1.03-.04-1.59-.04-2.17,0-4.21,.42-6.13,1.25-1.92,.83-3.59,1.97-5.03,3.41-1.44,1.44-2.59,3.13-3.44,5.07-.86,1.94-1.29,4-1.29,6.17v29.67h-14.83v-29.67c0-4.29,.81-8.3,2.42-12.03,1.61-3.73,3.81-7,6.58-9.8,2.77-2.8,6.03-5.01,9.76-6.62,3.73-1.61,7.72-2.42,11.96-2.42,2.57,0,5.08,.32,7.53,.95,2.45,.63,4.78,1.53,7,2.69l-11.5,11.66c-.45-.15-.93-.24-1.44-.26Z"/><path d="M434.04,1.51V37.99c0,4.19-.79,8.11-2.38,11.77-1.59,3.66-3.75,6.85-6.47,9.57s-5.93,4.87-9.61,6.43c-3.68,1.56-7.62,2.35-11.81,2.35s-8.11-.78-11.77-2.35c-3.66-1.56-6.85-3.71-9.57-6.43s-4.87-5.92-6.43-9.57c-1.57-3.66-2.35-7.58-2.35-11.77s.78-8.05,2.35-11.73c1.56-3.68,3.71-6.9,6.43-9.65,2.72-2.75,5.92-4.92,9.57-6.51,3.66-1.59,7.58-2.38,11.77-2.38l15.14,14.99h-15.14c-2.07,0-4.02,.4-5.87,1.21-1.84,.81-3.44,1.89-4.81,3.25s-2.45,2.98-3.25,4.84c-.81,1.87-1.21,3.86-1.21,5.98s.4,4.02,1.21,5.87c.81,1.84,1.89,3.44,3.25,4.81s2.96,2.45,4.81,3.25c1.84,.81,3.8,1.21,5.87,1.21s4.11-.4,5.98-1.21c1.87-.81,3.48-1.89,4.84-3.25s2.45-2.96,3.25-4.81c.81-1.84,1.21-3.8,1.21-5.87V1.51h14.99Z"/><path d="M455.54,30.12h24.22c-1.31-2.37-3.14-4.28-5.49-5.71-2.35-1.44-4.96-2.16-7.83-2.16-2.12,0-4.11,.4-5.98,1.21-1.87,.81-3.51,1.92-4.92,3.33-1.41,1.41-2.52,3.05-3.33,4.92-.81,1.87-1.21,3.86-1.21,5.98s.4,4.11,1.21,5.98c.81,1.87,1.92,3.51,3.33,4.92,1.41,1.41,3.05,2.52,4.92,3.33,1.87,.81,3.86,1.21,5.98,1.21h23.46l-15.14,14.99h-8.33c-4.19,0-8.14-.79-11.84-2.38-3.71-1.59-6.94-3.76-9.69-6.51-2.75-2.75-4.92-5.98-6.51-9.69-1.59-3.71-2.38-7.66-2.38-11.84s.79-8.14,2.38-11.84c1.59-3.71,3.76-6.94,6.51-9.69,2.75-2.75,5.98-4.92,9.69-6.51,3.71-1.59,7.66-2.38,11.84-2.38s8.14,.79,11.84,2.38c3.71,1.59,6.94,3.76,9.69,6.51,2.75,2.75,4.92,5.98,6.51,9.69,1.59,3.71,2.38,7.66,2.38,11.84v7.42h-26.19l-15.14-14.99Z"/><path d="M554.83,68.12h-14.83V35.57c0-1.82-.34-3.52-1.02-5.11-.68-1.59-1.62-2.96-2.8-4.12-1.19-1.16-2.57-2.08-4.16-2.76-1.59-.68-3.27-1.02-5.03-1.02s-3.52,.34-5.11,1.02c-1.59,.68-2.99,1.6-4.2,2.76-1.21,1.16-2.16,2.54-2.84,4.12-.68,1.59-1.02,3.29-1.02,5.11v32.54h-14.83V35.57c0-3.83,.73-7.45,2.2-10.86,1.46-3.41,3.47-6.38,6.02-8.93,2.55-2.55,5.51-4.55,8.89-6.02,3.38-1.46,7.01-2.19,10.9-2.19s7.46,.73,10.86,2.19c3.41,1.46,6.36,3.47,8.85,6.02,2.5,2.55,4.48,5.52,5.94,8.93,1.46,3.41,2.2,7.03,2.2,10.86v32.54Z"/></g></g></svg>